{"asset":{"version":"2.0","generator":"Blockbench 4.9.4 glTF exporter"},"scenes":[{"nodes":[1],"name":"blockbench_export"}],"scene":0,"nodes":[{"rotation":[0,0.3826834323650898,0,0.9238795325112867],"translation":[0.0625,0,0.125],"name":"road-turn-col","mesh":0},{"children":[0]}],"bufferViews":[{"buffer":0,"byteOffset":0,"byteLength":3456,"target":34962,"byteStride":12},{"buffer":0,"byteOffset":3456,"byteLength":3456,"target":34962,"byteStride":12},{"buffer":0,"byteOffset":6912,"byteLength":2304,"target":34962,"byteStride":8},{"buffer":0,"byteOffset":9216,"byteLength":864,"target":34963}],"buffers":[{"byteLength":10080,"uri":"data:application/octet-stream;base64,"}],"accessors":[{"bufferView":0,"componentType":5126,"count":288,"max":[0.25,0.03125,0.29002293944358826],"min":[-0.25,0,-0.5470626354217529],"type":"VEC3"},{"bufferView":1,"componentType":5126,"count":288,"max":[1,1,0.7171319127082825],"min":[-1,-1,-0.7071067690849304],"type":"VEC3"},{"bufferView":2,"componentType":5126,"count":288,"max":[0.6990125179290771,0.7466706037521362],"min":[0,0],"type":"VEC2"},{"bufferView":3,"componentType":5123,"count":432,"max":[287],"min":[0],"type":"SCALAR"}],"materials":[{"pbrMetallicRoughness":{"metallicFactor":0,"roughnessFactor":1,"baseColorTexture":{"index":0}},"alphaMode":"MASK","alphaCutoff":0.05,"doubleSided":true}],"textures":[{"sampler":0,"source":0}],"samplers":[{"magFilter":9728,"minFilter":9728,"wrapS":33071,"wrapT":33071}],"images":[{"mimeType":"image/png","uri":"data:image/png;base64,"}],"meshes":[{"primitives":[{"mode":4,"attributes":{"POSITION":0,"NORMAL":1,"TEXCOORD_0":2},"indices":3,"material":0}]}]}