{"asset":{"version":"2.0","generator":"Blockbench 4.9.4 glTF exporter"},"scenes":[{"nodes":[12],"name":"blockbench_export"}],"scene":0,"nodes":[{"translation":[-0.03125,0,0],"name":"Mirror_Right-col","mesh":0},{"translation":[-0.5312499999999999,-0.21875,-0.53125],"name":"wheel_front_left-col","mesh":1},{"translation":[0.4843749999999999,0.21875,0.53125],"name":"wheel_front_left","children":[1]},{"translation":[0.4687499999999999,-0.21875,-0.53125],"name":"wheel_front_right-col","mesh":2},{"translation":[-0.4218749999999999,0.21875,0.53125],"name":"wheel_front_right","children":[3]},{"translation":[-0.5312499999999999,-0.21875,-0.53125],"name":"wheel_rear_left-col","mesh":3},{"translation":[0.4843749999999999,0.21875,-0.59375],"name":"wheel_rear_left","children":[5]},{"translation":[0.4687499999999999,-0.21875,-0.53125],"name":"wheel_reear_right-col","mesh":4},{"translation":[-0.4218749999999999,0.21875,-0.59375],"name":"wheel_rear_right","children":[7]},{"translation":[-0.03125,0,0],"name":"Mirror_Left-col","mesh":5},{"translation":[-0.03125,0,0],"name":"body-col","mesh":6},{"name":"Root","children":[0,2,4,6,8,9,10]},{"children":[11]}],"bufferViews":[{"buffer":0,"byteOffset":0,"byteLength":672,"target":34962,"byteStride":12},{"buffer":0,"byteOffset":672,"byteLength":672,"target":34962,"byteStride":12},{"buffer":0,"byteOffset":1344,"byteLength":448,"target":34962,"byteStride":8},{"buffer":0,"byteOffset":1792,"byteLength":168,"target":34963},{"buffer":0,"byteOffset":1960,"byteLength":1728,"target":34962,"byteStride":12},{"buffer":0,"byteOffset":3688,"byteLength":1728,"target":34962,"byteStride":12},{"buffer":0,"byteOffset":5416,"byteLength":1152,"target":34962,"byteStride":8},{"buffer":0,"byteOffset":6568,"byteLength":384,"target":34963},{"buffer":0,"byteOffset":6952,"byteLength":1728,"target":34962,"byteStride":12},{"buffer":0,"byteOffset":8680,"byteLength":1728,"target":34962,"byteStride":12},{"buffer":0,"byteOffset":10408,"byteLength":1152,"target":34962,"byteStride":8},{"buffer":0,"byteOffset":11560,"byteLength":384,"target":34963},{"buffer":0,"byteOffset":11944,"byteLength":1728,"target":34962,"byteStride":12},{"buffer":0,"byteOffset":13672,"byteLength":1728,"target":34962,"byteStride":12},{"buffer":0,"byteOffset":15400,"byteLength":1152,"target":34962,"byteStride":8},{"buffer":0,"byteOffset":16552,"byteLength":384,"target":34963},{"buffer":0,"byteOffset":16936,"byteLength":1728,"target":34962,"byteStride":12},{"buffer":0,"byteOffset":18664,"byteLength":1728,"target":34962,"byteStride":12},{"buffer":0,"byteOffset":20392,"byteLength":1152,"target":34962,"byteStride":8},{"buffer":0,"byteOffset":21544,"byteLength":384,"target":34963},{"buffer":0,"byteOffset":21928,"byteLength":672,"target":34962,"byteStride":12},{"buffer":0,"byteOffset":22600,"byteLength":672,"target":34962,"byteStride":12},{"buffer":0,"byteOffset":23272,"byteLength":448,"target":34962,"byteStride":8},{"buffer":0,"byteOffset":23720,"byteLength":168,"target":34963},{"buffer":0,"byteOffset":23888,"byteLength":3936,"target":34962,"byteStride":12},{"buffer":0,"byteOffset":27824,"byteLength":3936,"target":34962,"byteStride":12},{"buffer":0,"byteOffset":31760,"byteLength":2624,"target":34962,"byteStride":8},{"buffer":0,"byteOffset":34384,"byteLength":984,"target":34963}],"buffers":[{"byteLength":35368,"uri":"data:application/octet-stream;base64,"}],"accessors":[{"bufferView":0,"componentType":5126,"count":56,"max":[-0.4375,0.8125,0.3125],"min":[-0.65625,0.71875,0.203125],"type":"VEC3"},{"bufferView":1,"componentType":5126,"count":56,"max":[1,1,1],"min":[-0.9805806875228882,-1,-0.9938837289810181],"type":"VEC3"},{"bufferView":2,"componentType":5126,"count":56,"max":[0.5607402324676514,0.55859375],"min":[0.0234375,0.0625],"type":"VEC2"},{"bufferView":3,"componentType":5123,"count":84,"max":[55],"min":[0],"type":"SCALAR"},{"bufferView":4,"componentType":5126,"count":144,"max":[0.546875,0.4375,0.75],"min":[0.328125,-5.551115123125783e-17,0.3125],"type":"VEC3"},{"bufferView":5,"componentType":5126,"count":144,"max":[1,1,1],"min":[-1,-1,-1],"type":"VEC3"},{"bufferView":6,"componentType":5126,"count":144,"max":[0.4493750035762787,0.5081250071525574],"min":[0,0.046875],"type":"VEC2"},{"bufferView":7,"componentType":5123,"count":192,"max":[143],"min":[0],"type":"SCALAR"},{"bufferView":8,"componentType":5126,"count":144,"max":[-0.328125,0.4375,0.75],"min":[-0.546875,-5.551115123125783e-17,0.3125],"type":"VEC3"},{"bufferView":9,"componentType":5126,"count":144,"max":[1,1,1],"min":[-1,-1,-1],"type":"VEC3"},{"bufferView":10,"componentType":5126,"count":144,"max":[0.546875,0.546875],"min":[0.0546875,0.03125],"type":"VEC2"},{"bufferView":11,"componentType":5123,"count":192,"max":[143],"min":[0],"type":"SCALAR"},{"bufferView":12,"componentType":5126,"count":144,"max":[0.546875,0.4375,0.75],"min":[0.328125,-5.551115123125783e-17,0.3125],"type":"VEC3"},{"bufferView":13,"componentType":5126,"count":144,"max":[1,1,1],"min":[-1,-1,-1],"type":"VEC3"},{"bufferView":14,"componentType":5126,"count":144,"max":[0.546875,0.546875],"min":[0,0],"type":"VEC2"},{"bufferView":15,"componentType":5123,"count":192,"max":[143],"min":[0],"type":"SCALAR"},{"bufferView":16,"componentType":5126,"count":144,"max":[-0.328125,0.4375,0.75],"min":[-0.546875,-5.551115123125783e-17,0.3125],"type":"VEC3"},{"bufferView":17,"componentType":5126,"count":144,"max":[1,1,1],"min":[-1,-1,-1],"type":"VEC3"},{"bufferView":18,"componentType":5126,"count":144,"max":[0.5546875,0.5625],"min":[0,0.109375],"type":"VEC2"},{"bufferView":19,"componentType":5123,"count":192,"max":[143],"min":[0],"type":"SCALAR"},{"bufferView":20,"componentType":5126,"count":56,"max":[0.71875,0.8125,0.3125],"min":[0.5,0.71875,0.203125],"type":"VEC3"},{"bufferView":21,"componentType":5126,"count":56,"max":[0.9805806875228882,1,1],"min":[-1,-1,-0.9938837289810181],"type":"VEC3"},{"bufferView":22,"componentType":5126,"count":56,"max":[0.5568335652351379,0.546875],"min":[0,0],"type":"VEC2"},{"bufferView":23,"componentType":5123,"count":84,"max":[55],"min":[0],"type":"SCALAR"},{"bufferView":24,"componentType":5126,"count":328,"max":[0.5,1.125,1.0625],"min":[-0.4375,0.1875,-1.0625],"type":"VEC3"},{"bufferView":25,"componentType":5126,"count":328,"max":[1,1,1],"min":[-1,-1,-1],"type":"VEC3"},{"bufferView":26,"componentType":5126,"count":328,"max":[0.5234375,0.5234375],"min":[0,0],"type":"VEC2"},{"bufferView":27,"componentType":5123,"count":492,"max":[327],"min":[0],"type":"SCALAR"}],"materials":[{"pbrMetallicRoughness":{"metallicFactor":0,"roughnessFactor":1,"baseColorTexture":{"index":0}},"alphaMode":"MASK","alphaCutoff":0.05,"doubleSided":true}],"textures":[{"sampler":0,"source":0}],"samplers":[{"magFilter":9728,"minFilter":9728,"wrapS":33071,"wrapT":33071}],"images":[{"mimeType":"image/png","uri":"data:image/png;base64,"}],"meshes":[{"primitives":[{"mode":4,"attributes":{"POSITION":0,"NORMAL":1,"TEXCOORD_0":2},"indices":3,"material":0}]},{"primitives":[{"mode":4,"attributes":{"POSITION":4,"NORMAL":5,"TEXCOORD_0":6},"indices":7,"material":0}]},{"primitives":[{"mode":4,"attributes":{"POSITION":8,"NORMAL":9,"TEXCOORD_0":10},"indices":11,"material":0}]},{"primitives":[{"mode":4,"attributes":{"POSITION":12,"NORMAL":13,"TEXCOORD_0":14},"indices":15,"material":0}]},{"primitives":[{"mode":4,"attributes":{"POSITION":16,"NORMAL":17,"TEXCOORD_0":18},"indices":19,"material":0}]},{"primitives":[{"mode":4,"attributes":{"POSITION":20,"NORMAL":21,"TEXCOORD_0":22},"indices":23,"material":0}]},{"primitives":[{"mode":4,"attributes":{"POSITION":24,"NORMAL":25,"TEXCOORD_0":26},"indices":27,"material":0}]}]}